<svg width="630" height="410" xmlns="http://www.w3.org/2000/svg"><path fill="#EDEBEB" d="M377.5 75.8v54.7h76.4v-14.8l-4.5-3.4h-22.2V93.4h12.3l.7 2.6.8.7 3.4-.7.6-1 1.7-.7 1.3-.6 1.1.9 1.3 1 .2 1.6 3.3.7 3.7-.7 2.8-1.6-.3-2 2-.5 1.5 1.5 2.2 1 2.2-3 5.9 2.6 3-1.8 1.1-2.2.3-10.6-1.4-5.7-.5-2.8-13.2-9.3-11.3-1-.5-28.6-1.8-1.6-.9-2.2 1-1.6-.2-3.6-2.3-2.5 1.2-1.5 1.6-.4 1.2-1.5.3-15.9h-28.4V24h-39.9l-6.7 7V58h-46.2l-4.6 2.3v15.2h16.4l3 3h3l2.3-2 1.9-1.2.5 1.9 2.1 1.3 3.6-1.5 3.4.5 4-1.4z" fill-rule="evenodd"/></svg>