<svg width="630" height="410" xmlns="http://www.w3.org/2000/svg"><path d="M33.5 84.8l1-1c4-.7 14.6-1 31.9-1 15.9 0 40.2-1.2 69.1 0 1.7 0 3.7.4 6 1l2.4 1.4 1.7 2c.3 2 .5 3.4.5 4.4 0 3.1.3 6.5 1 10.2l58-.2 9-.3 5.6 1.5 1.7 3.6.7 4-.3 28.2-2 3a9.5 9.5 0 01-2.4 1.7c-1.5.5-2.6 0-3.1.7-.5.6.1 1.4 0 2.4-.2.4.6 1 .2 1.7 0 .3-.3.7-.5 1.2l-.5 1.2-5.2 2.5-6 3.5h-66.8l-3.1-1c-1-.4-1.6-1.7-2-2-1.2-.8-2.2-1.5-3.1-1.9-1.3-.5-1.5-3.5-3.4-3.7-.5 0-1.5.4-2.9 1.4l-2.6 4-5 2.2c-2.4.4-4 .4-5 0-1-.5-2-.2-2.7-1-1.2-1.1-3-3.4-3.7-3.9a7.3 7.3 0 00-4.9-1.3V121l-24 .8-1.7-1-2 1.5-3-.3c-3.5-.7-6-1-7.5-1-1 0-1.8 1-2.7 1-1.1 0-2.5-1-4.1-1h-9c-2.7 0-4.5 0-5.6-.3-1.6-.3-3-1.4-4-1.4s-2.4 1.2-4 1.5c-1 .2-2.7.2-5 .2l-1-4.4v-15.3l2-5.9a11 11 0 012.3-3.8l2.5-4.5 3.2-2.3z" fill="#EDEBEB" fill-rule="evenodd"/></svg>